# xmcd
#
# Track frame offsets:
# 150
# 17252
# 29190
# 49725
# 64902
# 84835
# 105787
# 125605
# 140895
# 154980
# 173665
# 188667
# 205240
# 215297
# 229252
# 240192
# 257920
# 274147
# 286090
# 295807
# 312322
#
# Disc length: 4382 seconds
#
# Revision: 3
# Processed by: cddbd v1.5PL3 Copyright (c) Steve Scherf et al.
# Submitted via: inCDius 2.0b9
#
DISCID=2a111c15
DTITLE=Various Artist - Hightone Records~The First Ten Years
DYEAR=1994
DGENRE=Blues
TTITLE0=Robert Cray/Playin' In The Dirt
TTITLE1=Dave Alvin/Fourth Of July
TTITLE2=Phil Alvin/County Fair
TTITLE3=Otis Rush/Tore Up
TTITLE4=Rosie Flores and Joe Ely/Love and Danger
TTITLE5=Phillip Walker/Don't Be Afraid Of The Dark
TTITLE6=Gary Stewart/Dark End Of The Street
TTITLE7=Archie Roach/Charcoal Lane
TTITLE8=Joe Louis Walker/I'll Get To Heaven On My Own
TTITLE9=Dick Dale/Scalped
TTITLE10=Jimmie Dale Gilmore/Deep Eddy Blues
TTITLE11=The Loved Ones/Pretty Baby
TTITLE12=The Lonesome Strangers/We Used To Fuss
TTITLE13=Heather Myles/Just Like Old Times
TTITLE14=Sonny Burgess and Dave Alvin/Tennessee Border
TTITLE15=Joe Ely/Lord  Of The Highway
TTITLE16=Rev. Billy C. Wirtz/Teenie Weenie Meanie
TTITLE17=Big Sandy and His Flyrite Boys/Hi-Billy Music
TTITLE18=Mint Juleps/Ain't He Got Nerve
TTITLE19=Billy Lee Riley/Calhoun City
TTITLE20=Chris Gaffney/Quiet Desperation
EXTD=
EXTT0=Robert Cray
EXTT1=Dave Alvin
EXTT2=Phil Alvin
EXTT3=Otis Rush
EXTT4=Rosie Flores
EXTT5=Phillip Walker
EXTT6=Gary Stewart
EXTT7=Archie Roach
EXTT8=Joe Louis Walker
EXTT9=Dick Dale
EXTT10=Jimmie Dale Gilmore
EXTT11=The Loved Ones
EXTT12=The Lonesome Stranger
EXTT13=Heather Myles
EXTT14=Sonny Burgess
EXTT15=Joe Ely
EXTT16=Rev. Billy C. Wirtz
EXTT17=Big Sandy and His Fly Rite Boys
EXTT18=Mint Juleps
EXTT19=Billy Lee Riley
EXTT20=Chris Gaffney
PLAYORDER=
